<svg xmlns="http://www.w3.org/2000/svg" xmlns:xlink="http://www.w3.org/1999/xlink" width="375" zoomAndPan="magnify" viewBox="0 0 375 374.999991" height="374.999991" preserveAspectRatio="xMidYMid meet" version="1.0"><defs><g><g id="id1"/></g><clipPath id="id2"><path d="M 132.757812 87.582031 L 242.257812 87.582031 L 242.257812 218.082031 L 132.757812 218.082031 Z M 132.757812 87.582031 " clip-rule="nonzero"/></clipPath></defs><g clip-path="url(#id2)"><path fill="#181123" d="M 156.605469 152.832031 C 156.605469 175.683594 175.179688 194.269531 198.003906 194.269531 L 198.003906 218.078125 C 196.40625 218.078125 194.804688 218.019531 193.210938 217.902344 C 191.613281 217.785156 190.023438 217.605469 188.441406 217.371094 C 186.859375 217.136719 185.285156 216.84375 183.726562 216.492188 C 182.164062 216.140625 180.617188 215.734375 179.085938 215.269531 C 177.554688 214.804688 176.042969 214.28125 174.550781 213.707031 C 173.054688 213.128906 171.585938 212.5 170.140625 211.8125 C 168.691406 211.128906 167.273438 210.390625 165.878906 209.601562 C 164.488281 208.8125 163.125 207.972656 161.796875 207.082031 C 160.464844 206.191406 159.167969 205.253906 157.90625 204.269531 C 156.644531 203.28125 155.421875 202.25 154.238281 201.175781 C 153.050781 200.101562 151.90625 198.980469 150.800781 197.820312 C 149.699219 196.660156 148.640625 195.460938 147.625 194.222656 C 146.609375 192.984375 145.640625 191.710938 144.71875 190.398438 C 143.796875 189.089844 142.925781 187.75 142.101562 186.375 C 141.28125 185 140.507812 183.597656 139.789062 182.167969 C 139.070312 180.734375 138.402344 179.28125 137.792969 177.800781 C 137.179688 176.320312 136.621094 174.816406 136.121094 173.296875 C 135.617188 171.777344 135.171875 170.238281 134.785156 168.683594 C 134.394531 167.128906 134.0625 165.5625 133.789062 163.984375 C 133.515625 162.40625 133.300781 160.820312 133.144531 159.226562 C 132.988281 157.632812 132.890625 156.03125 132.847656 154.429688 C 132.808594 152.828125 132.828125 151.226562 132.910156 149.628906 C 132.988281 148.027344 133.125 146.433594 133.320312 144.84375 C 133.515625 143.253906 133.769531 141.671875 134.082031 140.101562 C 134.394531 138.527344 134.761719 136.972656 135.191406 135.425781 C 135.617188 133.882812 136.101562 132.355469 136.640625 130.847656 C 137.179688 129.339844 137.773438 127.851562 138.421875 126.386719 C 139.070312 124.921875 139.769531 123.484375 140.523438 122.070312 C 141.277344 120.660156 142.085938 119.277344 142.941406 117.921875 C 143.796875 116.566406 144.703125 115.246094 145.65625 113.960938 C 146.609375 112.675781 147.605469 111.425781 148.652344 110.210938 C 149.699219 108.996094 150.785156 107.824219 151.917969 106.691406 C 153.160156 105.449219 154.453125 104.257812 155.789062 103.117188 C 157.128906 101.980469 158.511719 100.894531 159.941406 99.867188 C 161.367188 98.839844 162.832031 97.875 164.335938 96.964844 C 165.839844 96.054688 167.378906 95.210938 168.953125 94.425781 C 170.527344 93.640625 172.128906 92.921875 173.757812 92.269531 C 175.390625 91.613281 177.046875 91.027344 178.722656 90.507812 C 180.402344 89.988281 182.101562 89.535156 183.816406 89.152344 C 185.53125 88.769531 187.257812 88.457031 188.996094 88.210938 C 190.738281 87.96875 192.484375 87.796875 194.238281 87.695312 C 195.996094 87.59375 197.75 87.5625 199.507812 87.601562 C 201.261719 87.644531 203.015625 87.753906 204.761719 87.9375 C 206.511719 88.117188 208.25 88.371094 209.976562 88.695312 C 211.703125 89.015625 213.414062 89.410156 215.109375 89.871094 C 216.804688 90.332031 218.480469 90.859375 220.132812 91.457031 C 221.785156 92.054688 223.414062 92.714844 225.011719 93.445312 C 226.613281 94.171875 228.179688 94.964844 229.714844 95.820312 L 218.132812 116.605469 C 215.054688 114.890625 211.808594 113.59375 208.402344 112.710938 C 204.992188 111.828125 201.527344 111.386719 198.003906 111.386719 C 175.179688 111.386719 156.605469 129.980469 156.605469 152.832031 Z M 228.976562 185.554688 C 228.109375 185.554688 227.25 185.636719 226.398438 185.808594 C 225.550781 185.976562 224.722656 186.226562 223.921875 186.558594 C 223.121094 186.894531 222.359375 187.300781 221.636719 187.78125 C 220.917969 188.265625 220.25 188.8125 219.636719 189.425781 C 219.023438 190.042969 218.472656 190.710938 217.992188 191.433594 C 217.511719 192.152344 217.101562 192.917969 216.769531 193.71875 C 216.4375 194.519531 216.1875 195.347656 216.019531 196.199219 C 215.851562 197.050781 215.765625 197.914062 215.765625 198.78125 C 215.765625 199.648438 215.851562 200.507812 216.019531 201.363281 C 216.1875 202.214844 216.4375 203.039062 216.769531 203.84375 C 217.101562 204.644531 217.511719 205.40625 217.992188 206.128906 C 218.472656 206.851562 219.023438 207.519531 219.636719 208.132812 C 220.25 208.75 220.917969 209.296875 221.636719 209.777344 C 222.359375 210.261719 223.121094 210.667969 223.921875 211 C 224.722656 211.332031 225.550781 211.585938 226.398438 211.753906 C 227.25 211.921875 228.109375 212.007812 228.976562 212.007812 C 229.84375 212.007812 230.703125 211.921875 231.554688 211.753906 C 232.40625 211.585938 233.234375 211.332031 234.035156 211 C 234.835938 210.667969 235.597656 210.261719 236.320312 209.777344 C 237.039062 209.296875 237.707031 208.75 238.320312 208.132812 C 238.933594 207.519531 239.480469 206.851562 239.964844 206.128906 C 240.445312 205.40625 240.851562 204.644531 241.183594 203.84375 C 241.515625 203.039062 241.765625 202.214844 241.9375 201.363281 C 242.105469 200.507812 242.191406 199.648438 242.191406 198.78125 C 242.191406 197.914062 242.105469 197.050781 241.9375 196.199219 C 241.765625 195.347656 241.515625 194.519531 241.183594 193.71875 C 240.851562 192.917969 240.445312 192.152344 239.964844 191.433594 C 239.480469 190.710938 238.933594 190.042969 238.320312 189.425781 C 237.707031 188.8125 237.039062 188.265625 236.320312 187.78125 C 235.597656 187.300781 234.835938 186.894531 234.035156 186.558594 C 233.234375 186.226562 232.40625 185.976562 231.554688 185.808594 C 230.703125 185.636719 229.84375 185.554688 228.976562 185.554688 Z M 228.976562 185.554688 " fill-opacity="1" fill-rule="nonzero"/></g><g fill="#3998c5" fill-opacity="1"><g transform="translate(84.323726, 264.768895)"><g><path d="M 13.9375 -24.703125 C 15.75 -24.703125 17.535156 -24.328125 19.296875 -23.578125 C 21.054688 -22.835938 22.554688 -21.835938 23.796875 -20.578125 L 20.1875 -16.3125 C 19.394531 -17.289062 18.445312 -18.066406 17.34375 -18.640625 C 16.238281 -19.210938 15.132812 -19.5 14.03125 -19.5 C 12.09375 -19.5 10.46875 -18.816406 9.15625 -17.453125 C 7.851562 -16.085938 7.203125 -14.398438 7.203125 -12.390625 C 7.203125 -10.335938 7.851562 -8.625 9.15625 -7.25 C 10.46875 -5.875 12.09375 -5.1875 14.03125 -5.1875 C 15.0625 -5.1875 16.128906 -5.441406 17.234375 -5.953125 C 18.347656 -6.460938 19.332031 -7.160156 20.1875 -8.046875 L 23.828125 -4.203125 C 22.503906 -2.847656 20.9375 -1.757812 19.125 -0.9375 C 17.320312 -0.125 15.519531 0.28125 13.71875 0.28125 C 10.03125 0.28125 6.960938 -0.921875 4.515625 -3.328125 C 2.066406 -5.734375 0.84375 -8.726562 0.84375 -12.3125 C 0.84375 -15.84375 2.085938 -18.789062 4.578125 -21.15625 C 7.078125 -23.519531 10.195312 -24.703125 13.9375 -24.703125 Z M 13.9375 -24.703125 "/></g></g></g><g fill="#3998c5" fill-opacity="1"><g transform="translate(113.12321, 264.768895)"><g><path d="M 14.0625 -24.703125 C 17.875 -24.703125 21.035156 -23.519531 23.546875 -21.15625 C 26.066406 -18.789062 27.328125 -15.832031 27.328125 -12.28125 C 27.328125 -8.71875 26.0625 -5.734375 23.53125 -3.328125 C 21 -0.921875 17.84375 0.28125 14.0625 0.28125 C 10.289062 0.28125 7.144531 -0.910156 4.625 -3.296875 C 2.101562 -5.691406 0.84375 -8.6875 0.84375 -12.28125 C 0.84375 -15.851562 2.101562 -18.816406 4.625 -21.171875 C 7.144531 -23.523438 10.289062 -24.703125 14.0625 -24.703125 Z M 14.140625 -19.5 C 12.222656 -19.5 10.585938 -18.800781 9.234375 -17.40625 C 7.878906 -16.019531 7.203125 -14.300781 7.203125 -12.25 C 7.203125 -10.195312 7.882812 -8.460938 9.25 -7.046875 C 10.625 -5.640625 12.253906 -4.9375 14.140625 -4.9375 C 16.023438 -4.9375 17.628906 -5.640625 18.953125 -7.046875 C 20.273438 -8.460938 20.9375 -10.195312 20.9375 -12.25 C 20.9375 -14.300781 20.273438 -16.019531 18.953125 -17.40625 C 17.628906 -18.800781 16.023438 -19.5 14.140625 -19.5 Z M 14.140625 -19.5 "/></g></g></g><g fill="#3998c5" fill-opacity="1"><g transform="translate(145.876799, 264.768895)"><g><path d="M 25.0625 0 L 19.5625 0 L 8.296875 -15.078125 L 8.296875 0 L 2.453125 0 L 2.453125 -24.5 L 7.9375 -24.5 L 19.25 -9.375 L 19.25 -24.5 L 25.0625 -24.5 Z M 25.0625 0 "/></g></g></g><g fill="#3998c5" fill-opacity="1"><g transform="translate(177.965544, 264.768895)"><g><path d="M 2.453125 -24.5 L 12.984375 -24.5 C 16.835938 -24.5 19.96875 -23.363281 22.375 -21.09375 C 24.789062 -18.832031 26 -15.882812 26 -12.25 C 26 -8.632812 24.773438 -5.6875 22.328125 -3.40625 C 19.878906 -1.132812 16.679688 0 12.734375 0 L 2.453125 0 Z M 8.6875 -19.53125 L 8.6875 -4.96875 L 13.125 -4.96875 C 15.039062 -4.96875 16.609375 -5.640625 17.828125 -6.984375 C 19.054688 -8.328125 19.671875 -10.070312 19.671875 -12.21875 C 19.671875 -14.363281 19.023438 -16.117188 17.734375 -17.484375 C 16.453125 -18.847656 14.820312 -19.53125 12.84375 -19.53125 Z M 8.6875 -19.53125 "/></g></g></g><g fill="#3998c5" fill-opacity="1"><g transform="translate(209.389433, 264.768895)"><g><path d="M 24.5 -24.5 L 24.5 -10.296875 C 24.5 -7.046875 23.492188 -4.46875 21.484375 -2.5625 C 19.484375 -0.664062 16.765625 0.28125 13.328125 0.28125 C 9.878906 0.28125 7.132812 -0.664062 5.09375 -2.5625 C 3.050781 -4.46875 2.03125 -7.046875 2.03125 -10.296875 L 2.03125 -24.5 L 8.265625 -24.5 L 8.265625 -10.296875 C 8.265625 -8.660156 8.734375 -7.359375 9.671875 -6.390625 C 10.617188 -5.421875 11.851562 -4.9375 13.375 -4.9375 C 14.863281 -4.9375 16.054688 -5.414062 16.953125 -6.375 C 17.859375 -7.332031 18.3125 -8.640625 18.3125 -10.296875 L 18.3125 -24.5 Z M 24.5 -24.5 "/></g></g></g><g fill="#3998c5" fill-opacity="1"><g transform="translate(240.498397, 264.768895)"><g><path d="M 13.9375 -24.703125 C 15.75 -24.703125 17.535156 -24.328125 19.296875 -23.578125 C 21.054688 -22.835938 22.554688 -21.835938 23.796875 -20.578125 L 20.1875 -16.3125 C 19.394531 -17.289062 18.445312 -18.066406 17.34375 -18.640625 C 16.238281 -19.210938 15.132812 -19.5 14.03125 -19.5 C 12.09375 -19.5 10.46875 -18.816406 9.15625 -17.453125 C 7.851562 -16.085938 7.203125 -14.398438 7.203125 -12.390625 C 7.203125 -10.335938 7.851562 -8.625 9.15625 -7.25 C 10.46875 -5.875 12.09375 -5.1875 14.03125 -5.1875 C 15.0625 -5.1875 16.128906 -5.441406 17.234375 -5.953125 C 18.347656 -6.460938 19.332031 -7.160156 20.1875 -8.046875 L 23.828125 -4.203125 C 22.503906 -2.847656 20.9375 -1.757812 19.125 -0.9375 C 17.320312 -0.125 15.519531 0.28125 13.71875 0.28125 C 10.03125 0.28125 6.960938 -0.921875 4.515625 -3.328125 C 2.066406 -5.734375 0.84375 -8.726562 0.84375 -12.3125 C 0.84375 -15.84375 2.085938 -18.789062 4.578125 -21.15625 C 7.078125 -23.519531 10.195312 -24.703125 13.9375 -24.703125 Z M 13.9375 -24.703125 "/></g></g></g><g fill="#3998c5" fill-opacity="1"><g transform="translate(269.297888, 264.768895)"><g><path d="M 21.171875 -19.5 L 13.796875 -19.5 L 13.796875 0 L 7.5625 0 L 7.5625 -19.5 L 0.25 -19.5 L 0.25 -24.53125 L 21.171875 -24.53125 Z M 21.171875 -19.5 "/></g></g></g></svg>